<svg width="267" height="432" viewBox="0 0 267 432" fill="none" xmlns="http://www.w3.org/2000/svg">
<path d="M65 312.5C66.2 281.3 45.5 240.5 31 221H236.5C208.5 258.5 199.833 296.833 201.5 312.5C187.5 311.167 137.4 312.5 65 312.5Z" fill="#FDC612"/>
<path fill-rule="evenodd" clip-rule="evenodd" d="M53.3131 260.987L53 259.5C59.4908 268.599 83 292.5 134.5 292.5C176.958 285.242 202.296 257.968 222.175 221L236.5 221C208.93 257.924 200.104 295.656 201.431 311.762H65.0243C65.4581 295.899 60.3407 277.639 53.3131 260.987Z" fill="#E4B310"/>
<ellipse cx="133.5" cy="135" rx="133.5" ry="135" fill="#FDC612"/>
<path fill-rule="evenodd" clip-rule="evenodd" d="M129.264 2.93138C154.146 12.2295 199.337 29.1164 219.5 56C242 86 253.5 109 240 175.5C228.141 204.652 216.527 231.119 200.754 251.643C240.379 228.23 267 184.759 267 135C267 126.788 266.275 118.747 264.886 110.939C258.474 83.6663 246.095 50.0246 206 21.6234C185.123 7.94351 160.229 0 133.5 0C129.845 0 126.224 0.148526 122.644 0.439934C124.632 1.20061 126.853 2.03037 129.264 2.93138Z" fill="#E4B310"/>
<path d="M95 37C66.5 44.8333 53.5 54 40 84.5" stroke="#FFE07C" stroke-width="17" stroke-linecap="round"/>
<path d="M80.4703 140.961C79.6205 139.873 78.0494 139.68 76.9612 140.53C75.873 141.38 75.6798 142.951 76.5297 144.039L80.4703 140.961ZM78.5 142.5C76.5297 144.039 76.5288 144.038 76.528 144.037C76.528 144.037 76.5274 144.036 76.5272 144.036C76.5269 144.035 76.5272 144.036 76.528 144.037C76.5295 144.039 76.5332 144.043 76.539 144.051C76.5506 144.066 76.5705 144.092 76.5985 144.13C76.6545 144.205 76.7429 144.325 76.8614 144.491C77.0983 144.822 77.4556 145.338 77.9155 146.045C78.8353 147.459 80.1656 149.641 81.7634 152.653C84.9585 158.676 89.2254 168.025 93.4176 181.208C101.801 207.57 109.895 249.292 108.501 310.443L113.499 310.557C114.905 248.908 106.749 206.63 98.1824 179.692C93.8996 166.225 89.5165 156.599 86.1804 150.31C84.5125 147.165 83.1068 144.856 82.1071 143.319C81.6073 142.55 81.2089 141.975 80.9301 141.585C80.7907 141.389 80.6812 141.241 80.6038 141.137C80.5651 141.085 80.5345 141.045 80.5121 141.015C80.501 141.001 80.4919 140.989 80.4849 140.98C80.4814 140.975 80.4784 140.972 80.476 140.969C80.4748 140.967 80.4734 140.965 80.4728 140.964C80.4715 140.963 80.4703 140.961 78.5 142.5Z" fill="black"/>
<path d="M191 142.5C191 142.5 155.7 187.7 158.5 310.5" stroke="black" stroke-width="5" stroke-linecap="round"/>
<path d="M89.5 160.5C88.1193 160.5 87 161.619 87 163C87 164.381 88.1193 165.5 89.5 165.5V160.5ZM89.5 165.5H180.5V160.5H89.5V165.5Z" fill="black"/>
<path d="M184 405H85C92.3333 414 103.5 432 137.5 432C161.9 432 178.667 414 184 405Z" fill="#69737D"/>
<rect x="57" y="310" width="153" height="28" rx="14" fill="#C7C6C2"/>
<rect x="65" y="346" width="138" height="24" rx="12" fill="#C7C6C2"/>
<rect x="69" y="378" width="129" height="21" rx="10.5" fill="#C7C6C2"/>
</svg>
